<svg xmlns="http://www.w3.org/2000/svg" xmlns:xlink="http://www.w3.org/1999/xlink" width="51" height="44" viewBox="0 0 51 44">
    <defs>
        <path id="a" d="M0 .95h50.122V22.4H0z"/>
        <path id="c" d="M0 43h50.122V.298H0z"/>
    </defs>
    <g fill="none" fill-rule="evenodd">
        <path fill="#B99764" d="M5 43.702h41.356V1H5z"/>
        <g transform="translate(0 .702)">
            <g transform="translate(0 13)">
                <mask id="b" fill="#fff">
                    <use xlink:href="#a"/>
                </mask>
                <path fill="#5A1300" d="M50.122 1.651a26.904 26.904 0 0 0-1.544-.217C38.377.37 36.022 1.267 19.43 2.165 8.309 2.766 2.63 1.975 0 1.338V21.34c.537.116 2.079.438 3.392.575 10.2 1.064 12.554.168 29.148-.729 8.379-.453 13.67-.115 16.895.352.243.022.47.044.687.066V1.651z" mask="url(#b)"/>
            </g>
            <path fill="#5A1300" d="M31.561 37.868l2.782.148-2.782.15zM19.204 38.166l-2.78-.149 2.78-.149zM19.558 13.742c.947-.108 1.89-.187 2.831-.267.943-.082 1.883-.152 2.821-.242.47-.038.936-.092 1.41-.137.472-.037.946-.084 1.42-.106.475-.026.954-.04 1.433-.026.478.015.953.07 1.421.151-.473.03-.946.043-1.414.096-.468.043-.935.108-1.404.171-.935.125-1.87.257-2.819.351-.95.084-1.899.13-2.85.133-.95.003-1.9-.025-2.849-.124M13.56 9.417c0 .262-.086.467-.255.617a.874.874 0 0 1-.617.207c-.15 0-.242-.013-.275-.045-.036-.031-.054-.12-.05-.266a.73.73 0 0 0 .285.043c.292-.014.438-.197.438-.544 0-.344-.164-.514-.493-.514h-.344v2.418h-.43V8.628h.74c.292 0 .513.047.664.141.224.14.336.357.336.648M14.962 10.309l-.329-1.148a3.483 3.483 0 0 1-.066-.27c-.01.06-.033.15-.07.27l-.364 1.148h.83zm.794 1.024c-.069.002-.128.004-.176.004-.14 0-.236-.017-.282-.053-.032-.025-.064-.087-.094-.186l-.152-.477H14.04l-.156.494a.474.474 0 0 1-.086.179c-.034.029-.103.043-.207.043l-.16-.004.93-2.71c.101-.003.181-.005.238-.005.12 0 .2.01.238.033.027.019.051.06.075.126l.845 2.556zM17.508 11.333h-1.431V8.628h.43v2.399h1z"/>
            <path fill="#5A1300" d="M18.84 10.309l-.33-1.148a3.579 3.579 0 0 1-.065-.27c-.01.06-.035.15-.071.27l-.363 1.148h.829zm.792 1.024c-.067.002-.126.004-.175.004-.141 0-.235-.017-.282-.053-.031-.025-.062-.087-.093-.186l-.154-.477h-1.011l-.157.494a.477.477 0 0 1-.085.179c-.034.029-.104.043-.207.043l-.161-.004.93-2.71a9.07 9.07 0 0 1 .239-.005c.12 0 .2.01.238.033.026.019.05.06.075.126l.843 2.556zM22.12 11.33a.733.733 0 0 1-.265.042.678.678 0 0 1-.269-.043c-.142-.07-.309-.27-.496-.598a4.728 4.728 0 0 0-.554-.79.957.957 0 0 0 .296.028c.297-.028.445-.219.445-.57 0-.155-.035-.268-.109-.345-.087-.093-.238-.139-.449-.139h-.259v2.418h-.433v-2.7h.817c.292 0 .515.071.667.216.148.134.22.32.22.552a.775.775 0 0 1-.129.431.665.665 0 0 1-.332.27.37.37 0 0 1-.14.028c.065.055.15.157.254.303.06.082.143.206.25.368.12.21.2.34.241.391.081.102.162.147.244.137M24.26 11.333a6.033 6.033 0 0 1-.29.008.703.703 0 0 1-.257-.031c-.026-.013-.051-.047-.073-.102l-.87-1.85a4.156 4.156 0 0 1-.124-.349c.018.131.027.296.027.49v1.842h-.354V8.628c.126-.005.226-.009.297-.009.134 0 .222.013.26.031.026.012.053.042.079.097l.837 1.824c.049.107.09.238.124.395a6.056 6.056 0 0 1-.014-.471V8.619h.358v2.714z"/>
            <mask id="d" fill="#fff">
                <use xlink:href="#c"/>
            </mask>
            <path fill="#5A1300" d="M24.901 11.333h.434V8.628h-.434zM27.235 10.309l-.33-1.148a3.483 3.483 0 0 1-.065-.27c-.011.06-.034.15-.07.27l-.364 1.148h.829zm.792 1.024c-.067.002-.127.004-.175.004-.141 0-.234-.017-.28-.053-.033-.025-.064-.087-.095-.186l-.153-.477h-1.011l-.158.494c-.03.096-.058.156-.086.179-.032.029-.102.043-.206.043-.041 0-.092-.002-.16-.004l.93-2.71a9.01 9.01 0 0 1 .238-.005c.119 0 .199.01.238.033.027.019.052.06.074.126l.844 2.556zM31.502 11.354a.842.842 0 0 1-.203.022c-.128 0-.223-.018-.282-.058-.157-.104-.323-.297-.5-.586-.24-.393-.45-.671-.637-.841l.91-1.133a.487.487 0 0 1 .103-.101.58.58 0 0 1 .235-.034c.043 0 .098.003.163.005l-.969 1.2c.216.202.432.479.644.825.095.165.187.327.278.489.086.138.173.209.258.212zm-2.096-.021h.434v-2.71h-.434v2.71z" mask="url(#d)"/>
            <path fill="#5A1300" d="M32.926 10.309l-.33-1.148a3.07 3.07 0 0 1-.065-.27c-.01.06-.035.15-.071.27l-.364 1.148h.83zm.792 1.024c-.067.002-.126.004-.175.004-.141 0-.235-.017-.282-.053-.031-.025-.063-.087-.093-.186l-.152-.477h-1.012l-.158.494a.459.459 0 0 1-.086.179c-.033.029-.103.043-.207.043l-.16-.004.93-2.71a9.07 9.07 0 0 1 .239-.005c.12 0 .199.01.238.033.026.019.05.06.075.126l.843 2.556zM36.86 8.623l-.526 2.726c-.087.002-.157.004-.211.004-.124 0-.204-.008-.243-.028-.023-.014-.042-.046-.055-.098l-.39-1.454a4.061 4.061 0 0 1-.13-.618 4.99 4.99 0 0 1-.14.615l-.438 1.45c-.015.054-.035.09-.058.101a.52.52 0 0 1-.224.032c-.048 0-.112-.002-.187-.004l-.523-2.72c.086-.006.15-.01.195-.01.107 0 .176.018.207.048.02.018.04.074.059.168l.28 1.455c.048.25.077.46.088.63.01-.199.053-.409.12-.634l.454-1.533c.015-.056.034-.09.057-.107.022-.016.074-.027.157-.027.048 0 .115.004.203.01l.442 1.661c.069.255.107.465.117.632.013-.167.045-.38.095-.642l.28-1.45c.02-.094.04-.15.062-.174.022-.024.079-.037.169-.037l.14.004M39.198 8.628l-.907 1.594v1.11h-.434v-1.128l-.896-1.576c.106-.005.185-.01.24-.01.12 0 .202.017.246.046.03.02.07.076.121.168l.375.669c.06.106.097.17.106.19.04.082.066.156.082.224.015-.083.08-.221.187-.414l.384-.67a.627.627 0 0 1 .13-.171c.037-.026.1-.041.191-.041.038 0 .096.004.175.009M16.993 5.646c0 .261-.085.466-.255.617a.905.905 0 0 1-.617.208c-.148 0-.241-.018-.276-.048-.034-.032-.052-.12-.048-.266a.735.735 0 0 0 .286.043c.29-.016.437-.197.437-.543 0-.345-.165-.516-.493-.516h-.344v2.42h-.43V4.856h.738c.293 0 .514.046.666.14.223.14.336.356.336.65M18.344 5.098a.56.56 0 0 0-.527.3c-.094.179-.14.446-.14.798 0 .365.047.638.144.82.11.204.289.307.536.307.234 0 .403-.095.504-.284.092-.173.14-.451.14-.831 0-.372-.042-.645-.13-.813-.097-.197-.273-.297-.527-.297m1.145 1.113c0 .434-.093.77-.28 1.013-.195.254-.477.38-.841.38-.382 0-.675-.132-.88-.4-.188-.247-.284-.584-.284-1.012 0-.434.103-.774.306-1.013.205-.242.485-.361.838-.361.379 0 .666.132.865.4.185.246.276.577.276.993M21.54 4.856c.008.187-.01.32-.058.399l-1.08 1.73c-.054.084-.124.18-.212.285.06-.007.178-.01.355-.01h.996v.3h-1.818c-.003-.05-.007-.093-.007-.132 0-.104.022-.192.068-.263l1.054-1.689c.088-.141.176-.255.262-.335a7.824 7.824 0 0 1-.375.011h-.912v-.296h1.726zM23.918 7.56a7.314 7.314 0 0 1-.29.008c-.13 0-.215-.01-.258-.031-.026-.012-.05-.046-.073-.102l-.867-1.848a4.197 4.197 0 0 1-.127-.351c.018.133.027.296.027.489v1.843h-.353V4.857c.125-.006.226-.008.296-.008a.73.73 0 0 1 .262.029c.026.01.052.043.078.096l.837 1.823c.049.109.09.24.125.397a6.03 6.03 0 0 1-.015-.472V4.849h.358V7.56zM25.778 6.536l-.327-1.15a2.741 2.741 0 0 1-.068-.267 2.479 2.479 0 0 1-.069.267l-.365 1.15h.83zm.792 1.024a5.822 5.822 0 0 1-.173.003c-.14 0-.235-.018-.282-.054-.032-.023-.064-.083-.094-.182l-.153-.479h-1.012l-.156.493c-.03.097-.06.158-.087.18-.033.03-.103.042-.207.042-.039 0-.092 0-.16-.003l.93-2.709c.102-.005.182-.006.24-.006.12 0 .198.011.237.033.026.018.05.06.076.126l.841 2.556zM28.898 7.56a7.4 7.4 0 0 1-.29.008c-.13 0-.216-.01-.258-.031-.027-.012-.05-.046-.074-.102l-.868-1.848a4.17 4.17 0 0 1-.124-.351c.017.133.028.296.028.489v1.843h-.357V4.857c.128-.006.227-.008.296-.008.136 0 .223.01.262.029.026.01.053.043.078.096l.837 1.823c.05.109.091.24.125.397a6.03 6.03 0 0 1-.015-.472V4.849h.36V7.56zM31.145 6.79a.764.764 0 0 1-.305.582c-.206.164-.482.243-.825.235a1.587 1.587 0 0 1-.335-.034.931.931 0 0 1-.262-.122c-.072-.045-.107-.128-.107-.25 0-.043.005-.103.012-.184.143.194.393.294.747.3a.587.587 0 0 0 .418-.139.455.455 0 0 0 .162-.329c.004-.219-.128-.373-.396-.462l-.294-.094c-.27-.088-.447-.19-.526-.308a.674.674 0 0 1-.107-.418.7.7 0 0 1 .283-.555c.178-.134.415-.198.713-.195.13 0 .232.01.305.032.07.02.165.064.282.13.076.045.113.131.113.256 0 .036-.003.093-.008.171a.729.729 0 0 0-.326-.23 1.113 1.113 0 0 0-.407-.074.467.467 0 0 0-.332.123.404.404 0 0 0-.142.291c-.008.176.111.308.355.391l.325.11c.457.152.675.412.657.772M33.588 7.58a.86.86 0 0 1-.203.023.524.524 0 0 1-.282-.059c-.157-.102-.324-.296-.5-.586-.24-.392-.454-.67-.638-.84l.911-1.135a.399.399 0 0 1 .102-.099.553.553 0 0 1 .234-.033c.044 0 .1.002.164.005l-.969 1.2c.217.203.432.478.645.823l.277.49c.086.138.172.208.26.211zm-2.096-.02h.434V4.851h-.434v2.71z" mask="url(#d)"/>
            <path fill="#5A1300" d="M35.01 6.536l-.327-1.15a3.071 3.071 0 0 1-.068-.267c-.01.06-.033.147-.07.267l-.364 1.15h.829zm.794 1.024a6.009 6.009 0 0 1-.176.003c-.14 0-.235-.018-.281-.054-.031-.023-.062-.083-.094-.182l-.153-.479h-1.012l-.157.493c-.03.097-.06.158-.085.18-.034.03-.104.042-.208.042-.04 0-.092 0-.16-.003l.93-2.709c.102-.005.182-.006.239-.006.12 0 .2.011.238.033.026.018.05.06.075.126l.844 2.556zM27.819 5.094c.086-.193.192-.542.234-.778l.384-.032c-.095.276-.266.635-.376.788l-.242.022zM20.807 37.3c-.165 0-.285.068-.359.205-.064.12-.096.3-.096.543 0 .247.034.433.1.557.073.138.195.208.364.208.158 0 .272-.064.341-.19.064-.121.096-.308.096-.567 0-.253-.029-.44-.088-.554-.068-.135-.186-.201-.358-.201m.778.756c0 .297-.064.524-.19.689-.134.17-.325.258-.573.258-.26 0-.459-.091-.597-.271-.13-.167-.194-.398-.194-.69 0-.294.07-.524.208-.687a.708.708 0 0 1 .57-.245c.256 0 .454.09.587.272.126.167.19.392.19.674M22.964 38.1c0-.285-.042-.49-.127-.61-.076-.107-.19-.16-.352-.16h-.28v1.448h.29c.312 0 .47-.227.47-.678m.328-.04c0 .313-.075.546-.223.7-.134.144-.326.214-.575.214h-.583v-1.838h.582c.276 0 .478.073.607.224.128.149.192.383.192.7M27.363 37.617c0 .505-.214.918-.643 1.241-.284.208-.57.315-.857.315-.069 0-.127-.04-.173-.123a1.813 1.813 0 0 1-.09-.214c.06.026.131.04.211.04.248 0 .472-.086.676-.257a1.09 1.09 0 0 0 .315-.414c.077-.185.111-.423.103-.715-.012-.456-.17-.684-.469-.684-.318 0-.475.196-.475.586 0 .16.033.287.1.382a.378.378 0 0 0 .328.157c.064 0 .12-.006.165-.022a.518.518 0 0 0 .22-.159.468.468 0 0 1 .048.181c0 .075-.063.146-.193.215a.63.63 0 0 1-.305.063.8.8 0 0 1-.564-.217.784.784 0 0 1-.236-.594c0-.248.082-.455.252-.614a.896.896 0 0 1 .644-.24c.284 0 .513.096.684.291.173.194.26.456.26.782M29.122 36.596v.194c-.005.08-.03.14-.068.178-.161.156-.328.403-.501.743a4.972 4.972 0 0 0-.47 1.41h-.434c.057-.341.188-.731.393-1.168.236-.497.482-.854.74-1.065a.815.815 0 0 1-.15.01h-1.095v-.302h1.585zM30.896 38.244a.847.847 0 0 1-.282.65.935.935 0 0 1-.652.262c-.162 0-.273-.007-.335-.019a.95.95 0 0 1-.278-.113c-.087-.05-.13-.204-.13-.456.155.202.398.304.73.304a.455.455 0 0 0 .35-.167.68.68 0 0 0 .163-.472.495.495 0 0 0-.133-.356c-.114-.118-.294-.177-.541-.177-.05 0-.104.002-.157.008-.012-.014-.026-.028-.044-.044l.023-.056.742-.738a1.983 1.983 0 0 1-.276.017h-.643v-.29h1.302c0 .134-.003.218-.008.25a.229.229 0 0 1-.063.113l-.522.52c.18.002.34.056.48.164.183.137.274.337.274.6M25.003 36.82l-.008.284-.008.3c-.002.101-.002.2-.002.296v.52c0 .133 0 .271.004.411.004.143.007.306.014.491a.626.626 0 0 0-.112-.009h-.221a.598.598 0 0 0-.112.01c.002-.042.004-.1.009-.177l.009-.252.009-.294c.003-.103.004-.207.004-.314v-1.068l-.06.037c-.026.018-.055.037-.086.06l-.095.063c-.031.022-.061.04-.088.055a1.144 1.144 0 0 0-.072-.119.745.745 0 0 0-.065-.089 5.858 5.858 0 0 0 .836-.488l.053.03c-.004.074-.006.16-.01.252" mask="url(#d)"/>
            <path fill="#FEFEFE" d="M10.05 22.12l-.04.213-1.076 3.476h2.125l-1.01-3.689zm1.328 4.838H8.651l-.532 1.644c-.078.24-.167.39-.269.45-.136.086-.416.127-.84.127-.22 0-.539-.009-.955-.026l3.013-8.844c.442-.009.783-.012 1.021-.012.611 0 1.003.046 1.174.138.118.07.23.253.332.55l2.718 8.168c-.508.017-.895.026-1.158.026-.484 0-.797-.04-.942-.128-.1-.059-.195-.214-.28-.46l-.555-1.633zM17.16 29.32c-.698-.036-1.276-.138-1.737-.307-.382-.145-.607-.315-.675-.51-.06-.163-.082-.665-.064-1.507.638.792 1.493 1.2 2.565 1.226 1.03.025 1.561-.462 1.596-1.457.017-.576-.345-.99-1.085-1.237l-.996-.33c-.943-.316-1.582-.69-1.914-1.124-.273-.357-.4-.813-.383-1.367.025-.799.343-1.428.956-1.888.614-.46 1.444-.668 2.49-.625.731.024 1.332.127 1.8.306.382.145.607.32.677.524.058.16.08.664.064 1.505-.623-.792-1.473-1.202-2.555-1.238-.382-.008-.688.107-.918.345-.229.24-.349.544-.357.92-.018.534.314.91.995 1.122l1.072.331c1.635.503 2.43 1.362 2.388 2.58-.027.8-.363 1.454-1.009 1.965-.723.571-1.694.825-2.91.765M27.46 20.321v1.123h-2.196v7.71h-2.067v-7.71h-2.22v-1.123zM30.42 24.496c.239.024.45.04.639.04.509 0 .874-.129 1.09-.38.219-.25.327-.69.327-1.32 0-.478-.082-.813-.243-1.008-.238-.272-.694-.41-1.366-.41h-.574v7.735h-2.041v-8.818h3.088c1.02 0 1.815.222 2.38.662.565.444.849 1.06.849 1.852 0 .57-.172 1.084-.517 1.537-.345.456-.76.761-1.244.914-.111.034-.2.055-.268.063.144.042.273.111.383.203.21.181.394.388.548.627.128.24.26.476.395.713.289.512.583 1.023.882 1.532.264.41.528.647.79.715a3.598 3.598 0 0 1-1.187.18c-.373 0-.634-.034-.778-.105-.46-.219-1.01-.887-1.646-2.002-.23-.45-.46-.897-.69-1.338-.34-.682-.611-1.145-.816-1.392" mask="url(#d)"/>
            <path fill="#FEFEFE" d="M39.393 22.12l-.041.213-1.075 3.476h2.126l-1.01-3.689zm1.327 4.838h-2.727l-.533 1.644c-.076.24-.165.39-.267.45-.135.086-.415.127-.841.127-.22 0-.538-.009-.954-.026l3.013-8.844a51.38 51.38 0 0 1 1.02-.012c.613 0 1.005.046 1.174.138.12.07.23.253.332.55l2.719 8.168c-.51.017-.894.026-1.157.026-.484 0-.798-.04-.943-.128-.101-.059-.194-.214-.28-.46l-.556-1.633z" mask="url(#d)"/>
        </g>
    </g>
</svg>
