<svg xmlns="http://www.w3.org/2000/svg" width="484" height="214" viewBox="0 0 484 214">
    <g fill="none" fill-rule="evenodd">
        <text fill="#5A1300" font-family="Playlist-Caps, Playlist" font-size="42.499" font-weight="500" letter-spacing=".036" transform="rotate(-5 19.48 46.692)">
            <tspan x="1.835" y="41.788">ODKRYJ</tspan>
        </text>
        <path fill="#95B455" d="M8.839 86.87l-.308-1.547c-.008-.106-.112-.099-.103.003.03.522-.039 1.049.095 1.563l.316-.02zm.091-5.129c-.227-.297-.143-.618-.274-1.029-.11-.098-.525-.07-.522.036-.084.317-.173.532-.154.844-.084.32.145.617-.037 1.049-.28.54-.468.866.288 1.237.11.095.421.075.312-.022-.231-.299-.346-.5-.054-.833.196-.222.39-.443.48-.656a.663.663 0 0 0-.039-.626zM6.892 66.086l.206-.012c-.102.005-.109-.099-.213-.092-.104.008-.104.008.007.104zm2.248 41.985c-.007-.104-.529-.07-.516.138l.588 1.007s.31-.02.305-.125c-.02-.312-.151-.72-.377-1.02zM7.507 97.199l.014.208c-.118-.201-.234-.404-.249-.612.01.103.126.305.235.404zm1.569-28.011c-.223-.196-.95-.147-1.257-.024l-.022-.313.268-.75c-.04-.622-.287-1.233-.535-1.846-.11-.097-.528-.072-.521.034-.278.54-.344 1.169-.206 1.685.02.31-.065.633-.151.95.014.208.133.41.36.708-.593.56-.754 1.302-.93 1.838-.07.527-.149.95-.115 1.47.034.52.472.806.818 1.308l.003.102c-.25.958-.616 1.816-.661 2.76.034.52.066 1.04.197 1.451.034.522-.045.945.195 1.45.007.106.321.086.314-.016l.26-.855c.021.31.15.72.378 1.022.007.104.631.063.73-.05.18-.427.154-.845.233-1.266l.211-1.58c.156-.847.201-1.792-.06-2.611-.123-.306-.347-.502-.565-.697.09-.215.075-.42.174-.533.245-1.06.283-2.108.842-3.189.188-.324.371-.756.04-1.048zm-.71 20.116c-.007-.104-.533-.174-.735-.057.097-.11.09-.215-.015-.208l-.073-1.147c-.01-.207-.455-.6-.158-.825l-.107-.099.292-.331c.174-.534.459-.972.426-1.492-.026-.416-.066-1.038-.5-1.326-.113-.097-.222-.196-.43-.183-.437-.285.35-1.067.538-1.391.27-.645.219-1.479-.438-1.96-.215-.093-.847-.155-.939.06-.186.324.15.724.18 1.14.017.312-.065.629-.04 1.047-.083.319-.258.853.281 1.133-.105.003-.306.123-.3.225-.173.536.177 1.139.109 1.668-.06.735-.542 1.392-.6 2.127-.076.423.368.814.594 1.112l.015.208c-.139 1.16-1.107 2.371-.406 3.477.11.099.63.063.728-.046.382-.547.246-1.063.421-1.596l.266-.749c.032.522.066 1.042-.004 1.569-.052.84 0 1.672-.364 2.53-.376.651-.442 1.284-.088 1.888.018.314.135.515.253.717-.111-.098-.529-.071-.521.033-.182.43.157.826.49 1.118.438.287.565.698.594 1.113-.21.011-.41.13-.507.24-.201.119.02.314.025.418.228.298.566.696.484 1.013l.104-.005c-.077.423-.156.846-.13 1.263-.207.011-.304.124-.304.124-.294.332-.052.84-.138 1.158-.075.423.054.83.185 1.242.02.312.129.411-.058.735-.097.112-.093.214-.086.32.12.202.54.28.757.37l.012.209c.131.41.463.704.698 1.104l.105-.006c-.13-.408-.462-.702-.588-1.007.21-.014.414-.027.515-.136.193-.223.183-.432-.032-.522-.438-.285.057-.737-.069-1.043-.129-.409-.265-.922-.294-1.34.078-.422.262-.85-.078-1.249l-.104.007.096-.11c.275-.644.34-1.277.3-1.9.071-.526.337-1.277-.113-1.77-.11-.099-.117-.203-.222-.196l-.008-.105c-.02-.31.178-.533.158-.846-.02-.312-.046-.728-.17-1.033-.124-.306-.248-.611-.269-.925-.027-.418.26-.851.344-1.172.265-.748.117-1.47.181-2.101.05-.84-.003-1.673-.263-2.492zm40.113 42.402c-.095.111-.088.215-.196.222-6.165 9.903-13.3-2.083-16.547-7.104C30.239 122.62 16.55 103 15.635 103.372c-2.35.88-.687 10.602-.692 12.168.122 5.22 4.06 12.916 3.11 17.68-.98 4.348-7.076 5.465-10.514 2.34-2.886-2.639-1.955-9.39-2.303-13.235-1.061-11.743-.773-23.68-1.734-35.534C2.787 77.217-.508 64.78 1.2 55.469c.875-4.338 2.631-4.66 7.091-3.585 5.936 1.298 5.339 3.425 5.05 8.774-.319 4.832.506 9.587.498 14.395.024 5.331-1.493 11.071.925 16.25 5.133-3.15 7.42-13.226 10.023-18.304 1.866-3.566 4.166-6.85 6.037-10.315 1.303-2.486.995-5.704 2.225-7.77 2.443-4.337 11.967-5.778 12.455.254.29 4.582-7.66 14.387-9.81 18.394-2.629 4.662-5.391 8.914-7.697 13.763-3.778 7.977-4.067 8.413-.134 16.003 3.105 6.075 7.527 11.544 10.924 17.286 1.753 2.92 3.818 4.146 5.74 6.431 1.244 1.488 2.119 3.733 3.953 4.661zM63.085 57.187c-9.603.192-4.284 31.318-3.928 36.94 7.058-4.107 14.683-37.1 3.928-36.94zm-8.694 45.815l.52-.032-.45-.495c-.006-.104-.31.022-.31.022-.094.213.018.311.24.505zm1.192 8.913l-.005-.102c.277-.542 1.183-1.123.629-1.608-.11-.099-.728.046-.834.052-.396.338-.174.534-.473.761l-.287.438c-.018-.312-.032-.52.054-.84.082-.318.055-.736.55-1.184.396-.34.384-.548.156-.848-.222-.195-.236-.403-.452-.495 0 0-.007-.104-.109-.096.215.093.325.188.325.188.007.106.528.072.523-.03.199-.119-.124-.305-.445-.393-.326-.188-.442-.39-.559-.592l.624-.037c.2-.119-.013-.21-.022-.314-.215-.09-.426-.183-.337-.398l-.104.007c-.014-.208.18-.428.169-.638l.312-.018c.3-.23.183-.43.28-.543.091-.213-.03-.414-.04-.622-.007-.106-.116-.203.083-.32.105-.005.204-.118.098-.112-.007-.102-.43-.18-.636-.165l-.007-.106c-.015-.21-.341-.396-.554-.487l-.106.007.445.389c-.21.012-.416.027-.513.138-.205.116-.307.122.01.206.327.188-.188.326-.071.527.016.21.13.41.043.626.003.105-.296.331.134.512l-.096.113c-.293.332-.382.547-.467.866-.091.213-.378.652-.053.839.105-.007.215.091.319.086-.104.005-.104.005-.097.11.11.098-.091.214-.186.326.01.206.017.311.134.514.117.2.125.305.133.409.012.21-.183.428-.379.649-.186.328-.168.64-.148.951-.077.425-.164.743.073 1.148.111.097.527.068.728-.049l.007.103c.013.211.029.419.138.516.005.106.332.292.13.409.006.105-.092.215-.194.222l-.475.763c.012.208.026.416.559.59l.314-.018c.534.174-.28.538-.474.76-.295.332-.274.647.474.913.105-.01.833-.054.932-.167.2-.116-.124-.305-.138-.51-.113-.101-.02-.316-.027-.419.091-.215.175-.534-.248-.61l.314-.02c.188-.327-.25-.614-.158-.829.085-.317.585-.663.662-1.084-.007-.106-.332-.294-.552-.488l-.106.004zm-2.334 1.09c.124.308.242.509.255.717l.102-.01c-.011-.204.08-.42-.043-.727l-.314.02zm-.056 2.409l.24.505.52-.032c.092-.215.085-.317.078-.423.093-.215-.124-.306.071-.527.3-.23.495-.45-.35-.604 0 0-.415.025-.306.124.317.082.43.18.13.41-.202.117-.41.13-.506.24-.099.113.012.208.123.307zm2.965 3.888c-.118-.202-.437-.287-.867-.468l-.007-.104c.286-.439.571-.873.65-1.298-.021-.31-.136-.512-.254-.713-.015-.208.079-.423-.144-.619-.007-.103-.319-.084-.312.02l-.285.436c-.014-.208-.125-.305-.347-.502l-.726.05c-.198.222-.185.427-.275.642.02.312-.07.527-.156.848-.19.324-.16.742.072 1.145l.543.278-.19.325c-.174.534-.254.959-.846 1.518-.088.215-.285.435.034.521.215.09.945.045 1.25-.078l.007.104c-.097.109-.196.222-.181.426-.093.215.238.51.468.809l.417-.027c.11.098.11.098.215.091l-.113-.098c.19-.325.379-.651.262-.852-.007-.104.083-.317.077-.423-.007-.104-.222-.195-.333-.29.606-.353.683-.778.878-1 .09-.214.181-.427.163-.74zm28.031 18.394c-6.55 2.194-10.476-6.964-13.37-11.381-2.197-3.31-7.553-18.545-11.712-18.177.006 5.02-.366 10.687 1.61 15.475 1.377 3.57 4.7 8.17.715 11.245-10.465 8.083-11.546-18.817-11.906-22.872-.85-10.085-.25-20.367-.785-30.472-.41-6.457-.508-12.932-.913-19.28-.453-5.513-2.108-8.543 1.58-13.064 3.37.413 5.908.882 8.99.056 3.794-1.181 5.9-2.569 10.205-.647 6.774 3.02 8.333 11.075 9.068 17.718 1.042 8.192.31 16.391-3.067 24.134-2.468 5.59-9.422 8.02-6.109 14.079 3.09 5.869 6.993 11.368 10.19 17.23 2.247 4.143 12.056 13.764 5.504 15.956z"/>
        <path fill="#95B455" d="M104.324 94.292c-.67-7.276-.204-16.398-3.243-23.106-2.192 1.708-1.959 13.609-2.398 16.565-.834 6.64-1.452 13.367-1.445 20.057 9.476-.602 7.907-5.517 7.086-13.516zm-11.795 15.07l-.06-.935c-.008-.106-.11-.099-.214-.093.02.311-.067.63.066 1.043l.208-.015zm.538-3.065c-.117-.202-.131-.41-.144-.618-.113-.099-.534-.178-.527-.072-.1.111-.19.326-.184.43-.088.214.138.513-.167.638-.292.332-.488.554.258.82.01.102.427.077.316-.022-.325-.186-.436-.287-.034-.52.202-.116.41-.129.5-.346.098-.11.091-.215-.018-.31zm-1.553-9.622s-.007-.106-.208.01l.208-.01zm-2.265 25.23c-.01-.105-.429-.184-.422-.079.011.21.137.517.147.725.108-.008.425.075.425.075.092-.213-.032-.52-.15-.72zm4.563-23.601c-.215-.09-.942-.045-1.249.08l-.004-.105c.088-.213.18-.432.174-.534-.014-.208-.132-.407-.247-.612-.117-.2-.34-.396-.556-.487-.005-.102-.416.029-.41.13-.18.43-.162.745-.038 1.05.014.207-.075.424-.072.526.015.208.23.3.34.397-.598.457-.675.878-.863 1.206-.195.219-.28.54-.262.851.022.312.452.495.784.787l.007.104c-.28.542-.663 1.088-.735 1.614-.084.32.041.625.052.833.021.312-.065.633.06.938 0 0 .008.104.112.097l-.416.028c-.195.22.136.513.149.72l-.169.64c-.097.11-.278.537.255.714l-.31.02c-.294.33.045.728-.04 1.047-.077.425-.683.776-.864 1.208-.09.212.344.498.463.7.005.103.005.103.11.098l-.098.11c-.272.643-1.384 1.238-.817 1.935.11.095.74.16.839.05.403-.236.28-.541.57-.873l.392-.442-.254.955c-.174.536-.142 1.056-.746 1.409-.502.344-.577.767-.344 1.17l.357.709.007.105c-.11-.098-.226-.299-.233-.405 0 0-.423-.075-.527-.071-.196.222.032.521.357.711.331.292.451.495.367.812-.215-.091-.423-.079-.523.034-.207.013-.088.215.016.208.118.2.344.499.143.617.007.104.111.099.111.099-.09.215-.183.43-.376.652l-.312.018c-.301.228-.183.428-.378.65-.09.216-.07.53-.058.734.013.21.018.315-.183.432-.104.007-.2.116-.2.116.012.208.437.287.652.379l.007.105c.016.31.239.506.364.812l.104-.007c-.012-.211-.242-.509-.256-.717.113.099.425.08.529.074.202-.119.304-.126.082-.321-.435-.285.188-.325.178-.533-.022-.311-.043-.625.05-.84-.015-.208.39-.443.057-.735l-.104.007.203-.118c.292-.332.48-.658.67-.983.083-.319.472-.763.142-1.054-.01-.106-.118-.202-.222-.195.104-.007.104-.007.096-.111-.005-.106.198-.223.183-.43.092-.214.181-.429.065-.63-.015-.211-.131-.41-.04-.625-.016-.21.285-.438.482-.66.29-.33.266-.746.343-1.17.174-.533.244-1.06.11-1.574-.01-.106-.53-.072-.738-.06.1-.109.1-.109-.005-.104.09-.213.07-.527.057-.735-.007-.104-.34-.396-.138-.514l.196-.22c.294-.334.593-.563.676-.88-.02-.313-.04-.625-.373-.917-.1.006-.206.013-.421-.077-.43-.184.378-.652.579-.769.389-.444.36-.858-.29-1.237-.101.007-.214-.091-.422-.079l.097-.11.286-.436c.013.21.138.516.354.607.109.097.63.065.727-.048.194-.222.285-.437.37-.757l.252-.955c.174-.534.352-1.068.11-1.574-.104.006-.111-.098-.111-.098l-.004-.106-.106.007-.23-.3c-.006-.102.092-.213.087-.318.272-.642.44-1.282 1.018-2.05.091-.215.385-.546-.047-.729zm25.005 29.983c-2.572 2.251-6.028 3.832-8.536 2.214-.973-.567-2.169-4.566-2.327-7.065-.09-3.026-.887-5.693-1.792-8.46-2.415 1.514-4.878 2.191-7.298 3.602-3.937 2.234-2.24-.695-2.779 4.044-.311 3.261.725 6.434-.894 8.94-2.286 3.492-5.996 2.682-8.242.211-2.913-3.056-2.585-7.78-2.628-11.75-.03-12.021 2.963-24.128 4.714-36.049 1.287-9.386 2.573-18.772 4.815-27.903 1.006-3.932 1.47-6.468 5.77-7.893 3.586-1.167 7.698-.594 9.089 3.187.254.715-1.088 5.923-1.14 6.762.048 2.402.625 4.874.984 7.256.643 5.184.77 10.508 1.414 15.694.893 7.468.595 11.043 2.107 18.369.896 4.229 2.6 11.33 3.086 15.692.6 4.457 3.166 8.685 3.64 12.837l.017.312zM124.457 65.627c-.111-.096-.119-.202-.126-.306 0 0-.102.007-.113-.097.219.09.335.29.239.403m-.567-7.281l.518-.034-.358-.71c-.111-.097-.422-.075-.414.027-.094.215.129.412.254.717m.468 27.149l-.314.02c.106-.008.113.096.215.089.106-.005.1-.11.1-.11m.885-25.562c-.006-.104-.427-.183-.748-.267l-.007-.104c-.014-.208-.24-.507-.463-.702l-.102.007c.011.208.34.396.357.71-.113-.099-.423-.078-.418.025-.306.123-.3.23-.084.319.43.183-.077.423-.064.63.123.307.145.62.06.938.013.208-.281.542.045.73 0 0 .106-.007.113.097l-.106.005c-.389.445-.467.87-.552 1.187-.082.319-.362.858-.03 1.152.111.097.213.088.22.194.015.208-.18.428-.174.532-.084.32-.07.527.045.732.119.199.131.408.145.616.018.314-.177.535-.37.757-.287.435-.255.955-.226 1.373-.072.527-.144 1.054.098 1.56.006.105.429.182.638.17l.106-.007c-.086.319-.073.527.045.727.012.21.339.398.145.619.007.106-.093.215-.19.326-.188.326-.49.554-.468.864.022.316.045.732.477.91.007.107.215.094.317.087.43.183-.265.75-.459.97-.286.435-.261.851.391 1.231.215.088.84.05.936-.06.195-.221-.136-.515-.15-.721-.013-.21-.026-.418.064-.633.084-.32.168-.638-.262-.82.106-.007.208-.014.307-.125.188-.324-.253-.713-.176-1.138.075-.423.676-.88.753-1.303.091-.212-.344-.499-.574-.8l-.007-.102c.165-.744 1.165-1.434.59-2.232-.11-.098-.728.045-.83.05-.4.34-.163.74-.457 1.076l-.285.436c-.022-.312-.047-.728.04-1.047.067-.53.035-1.049.628-1.61.39-.441.37-.755.128-1.26-.11-.099-.223-.196-.226-.301.102-.008.52-.033.618-.142.192-.222-.138-.515-.466-.703-.43-.184-.448-.495-.566-.695.208-.015.514-.138.62-.145.2-.117-.014-.208-.022-.312-.222-.194-.44-.391-.35-.605 0 0-.008-.105-.112-.098l.265-.748c.108-.007.21-.014.307-.125.3-.228.183-.429.272-.642.086-.32-.04-.629-.052-.835-.012-.208-.123-.305.076-.423.098-.111.197-.223.19-.325m-2.779 12.197c.124.307.143.619.161.93l.21-.012-.059-.938c-.113-.096-.32-.084-.312.02m-.213 3.254c.222.197.13.41.247.613.113.097.527.07.527.07.092-.215.183-.43.176-.535-.018-.311-.24-.507-.047-.727.398-.34.594-.561-.26-.82l-.312.02c.327.188.443.39.144.619l-.5.344a.317.317 0 0 0 .025.416m2.974 5.664c-.126-.304-.456-.597-.893-.882.272-.645.65-1.296.615-1.817-.016-.314-.038-.624-.162-.929-.021-.315.065-.633-.164-.932-.008-.104-.318-.083-.312.02l-.278.541c-.015-.21-.133-.41-.36-.71l-.728.047c-.189.326-.17.638-.26.853l-.246 1.061c-.064.63-.136 1.156.106 1.666.118.2.337.396.552.487l-.186.325c-.163.742-.228 1.374-.807 2.144-.195.22-.382.546-.057.734.319.083.943.043 1.353-.087.007.105-.097.109-.09.215-.098.11-.19.326-.182.432-.08.421.261.819.496 1.222.104-.007.527.07.626-.043.075-.421.265-.747.134-1.156-.014-.21.075-.423.072-.529.088-.215-.126-.304-.346-.498.604-.353.676-.88.864-1.207.186-.324.274-.643.253-.957m4.513 10.168c1.028 12.898 2.614 26.385 1.827 38.666-.04 1.047-4.074.048-4.042.57-8.88.043-6.84-8.974-6.943-15.552-.27-9.18-1.463-18.097-1.622-27.182-.145-8.875-1.131-17.802-1.388-26.777-.294-9.598-4.17-17.923 8.515-17.369-.514.138-1.133.282-1.638.522 6.16 4.836 3.958 16.266 4.096 23.365.088 7.939.482 15.859 1.195 23.757M143.481 96.928c-.138-.513-.06-.936-.086-1.354l-.21.015c.029.416-.05.837-.023 1.256.007.104.32.083.32.083m.241-4.406l-.26-.82c-.113-.098-.527-.071-.523.034l-.167.639c.022.312.247.61.061.935-.287.438-.482.658.281 1.131.103-.005.416-.025.303-.121-.324-.19-.338-.398-.044-.73.103-.007.2-.117.297-.228-.007-.104.092-.213.19-.326.097-.11-.02-.312-.138-.514m-.181 21.859c-.11-.096-.527-.07-.518.032l.475.912s.312-.02.305-.123c.093-.216-.136-.513-.262-.821m-2.615-34.642l.104-.008c.109.1.109.1.104-.008-.104.008-.104.008-.217-.088 0 0-.097.11.009.104m-.888 5.804c.029.418.463.705.902.988l.004.106c-.05.84-.316 1.59-.271 2.316.027.417.16.826.288 1.236.124.309.047.728.28 1.132l.314-.018.258-.855c.021.315.145.618.367.813.11.099.735.058.834-.052.075-.424.056-.736.029-1.152l.123-1.368c-.048-.728.013-1.464-.446-2.06-.116-.202-.233-.405-.56-.593.1-.113.094-.215.08-.423.156-.844.204-1.687.672-2.55.197-.223.378-.653.052-.842-.32-.084-.943-.043-1.36-.018 0 0 .096-.109.089-.215.1-.109.19-.326.177-.532a.894.894 0 0 0-.044-.73c-.126-.306-.244-.505-.262-.82-.106.008-.529-.07-.522.033-.195.223-.287.438-.376.653.012.208-.07.523-.058.735.117.2-.073.525-.059.735-.091.215.131.41.353.604-.597.455-.654 1.192-.839 1.624-.077.421-.156.844-.025 1.253m2.33 8.739c-.109-.099-.21-.091-.419-.079-.439-.285.357-.964.447-1.18.19-.324.27-.643.156-.844-.02-.312-.25-.611-.574-.801-.215-.091-.943-.045-1.034.172-.085.317.247.611.267.925.014.204.034.52-.049.837.01.21-.17.638.37.918-.208.014-.312.02-.307.124-.285.435.163.93.088 1.353-.178.534-.767 1.092-.84 1.622-.083.318.254.714.49 1.119l.007.104-.267.747-.098.113.009.103-.092.213-.19.328-.156.846c.015.206.137.513.257.715.109.097.73-.046.826-.158.195-.222.181-.43.273-.643a2.009 2.009 0 0 1 .057-.735l.385-.549c-.079.425-.046.945-.018 1.361-.068.63-.02 1.36-.39 2.117-.382.543-.35 1.067-.004 1.565.124.307.246.613.475.91l.111.1c-.215-.092-.333-.291-.34-.397-.006-.104-.526-.07-.518.034-.19.326.141.617.571.798.332.292.456.6.58.905l-.61.25c-.2.116.02.311.13.406.221.197.449.497.461.703-.096.113.008.106.113.098l-.252.958c-.099.11-.203.116-.198.218-.297.23-.166.64-.148.952-.085.32.04.624.172 1.036.014.208.123.305-.072.526-.099.113-.197.222-.084.319.007.104.43.184.645.272 0 0 .006.104.111.1.018.31.35.605.58.902l.105-.005-.471-.807c.104-.007.415-.027.412-.13.303-.124.288-.334-.029-.418-.43-.18.174-.53.05-.84-.123-.306-.254-.716-.272-1.026-.027-.416.265-.748-.172-1.037l-.004-.103.095-.11c.287-.437.248-1.061.323-1.484.079-.423.24-1.165-.092-1.46-.109-.094-.22-.193-.324-.186-.007-.104.097-.11.097-.11-.117-.202.077-.424.063-.632-.018-.312-.036-.625-.162-.928-.123-.309-.242-.51-.261-.821-.02-.314.17-.639.252-.958.28-.54.138-1.158.102-1.68.078-.422.058-.736.04-1.046l-.032-.522c-.008-.104-.126-.305-.138-.513-.008-.105-.53-.071-.737-.057.106-.007.098-.113-.007-.106.084-.317.066-.629.046-.944-.014-.206-.457-.595-.152-.723l-.005-.102c-.006-.104.09-.215.19-.324.292-.334.575-.768.55-1.185.086-.321.052-.841-.387-1.126m36.974 29.117c-1.954 3.784-8.379 4.713-11.276 1.864-2.67-2.547-5.204-9.497-6.579-13.066-5.592-13.966-13.598-29.766-16.561-45.153 1.235 9.538 2.167 19.306 2.676 28.995.307 6.462 1.837 12.426 2.653 18.752.342 2.07.97 5.374.355 7.192-.183.428-4.62 6.25-5.025 6.485-6.621 4.392-8.206-5.752-8.46-9.812-.12-1.873 1.01-3.826.987-5.81-.068-2.716-1.188-5.57-1.574-8.37-1.393-12.035-.43-24.85-1.1-37.038-.22-5.107-4.685-27.719 6.704-24.469 5.327 1.543 6.122 9.124 7.323 13.23 1.998 6.772 3.898 13.654 6.512 20.283 1.504 3.879 3.607 7.403 5 11.182 1.643 4.494 2.222 11.983 6.559 14.426.575-10.696-.106-21.421-.689-32.255-.188-4.588-.165-9.187-.568-13.868-.17-2.707-2.658-10.598-1.658-12.96 1.55-3.548 6.557-2.09 8.375.2 2.156 2.684 1.154 9.96 1.283 13.612.465 10.633 1.236 21.141 1.6 31.782.103 6.577.727 13.124 1.148 19.787.253 3.956 4.177 11.442 2.315 15.011M187.887 86.792c-.13-.41-.154-.826-.183-1.242-.007-.104-.213-.094-.208.012.027.416.056.832.192 1.346 0 0 .206-.01.2-.116zm-.063-4.28l-.267-.928c-.005-.102-.527-.07-.52.036-.09.212-.077.423-.059.734-.084.319.14.514-.05.842-.28.54-.473.758.386 1.124.11.099.415-.027.313-.02-.333-.292-.451-.496-.152-.724l.487-.554c.09-.213-.026-.416-.138-.51zm-.127 22.69c-.007-.106-.525-.07-.52.032l.477.91c.006.105.317.087.31-.019.086-.319-.037-.626-.267-.923zM185.4 68.97l.11.099s.103-.008.098-.113l-.208.014zm2.253 2.576c-.215-.091-.944-.047-1.353.086.097-.113.091-.215.091-.215.085-.32.174-.536.163-.742.07-.53-.274-1.027-.518-1.536-.11-.1-.527-.07-.52.032-.182.432-.356.964-.22 1.48.016.207-.07.526-.057.734.012.208.138.512.351.604-.591.56-.649 1.296-.83 1.728-.183.426-.156.844-.129 1.26.027.418.46.704.905 1.092l-.096.11c-.156.847-.528 1.603-.476 2.437.027.416.158.826.187 1.244.129.407.052.83.285 1.233l.315-.018c.083-.319.173-.534.155-.848.123.307.247.612.475.911.11.097.63.065.73-.046.18-.429.16-.743.135-1.157l.226-1.373c.058-.737.11-1.576-.25-2.287-.013-.206-.235-.402-.456-.597-.005-.102.086-.32.079-.423.25-.957.301-1.795.764-2.766.188-.326.376-.65.044-.943zm-.145 17.463c-.007-.102-.423-.075-.63-.062.101-.006.094-.11-.008-.104-.022-.312-.04-.624-.17-1.035-.013-.208-.448-.493-.257-.717.1-.109.19-.324.183-.428.289-.437.475-.762.443-1.282-.02-.314-.052-.832-.49-1.12-.11-.097-.318-.084-.424-.077-.434-.287.254-.958.443-1.282.28-.541.233-1.27-.522-1.64-.215-.092-.84-.049-.938.06-.19.325.15.721.17 1.035.124.307.035.52.053.832-.085.319-.156.846.38 1.023-.208.011-.307.124-.307.124-.28.54.17 1.033.204 1.554-.064.63-.553 1.183-.616 1.816-.084.317.357.71.586 1.006l.111.1-.106.006c-.037 1.046-1.02 2.052-.335 2.948.117.203.633.065.732-.046.387-.443.258-.853.432-1.388l.272-.643c.034.521.06.94-.013 1.464-.06.633.088 1.354-.387 2.116-.383.546-.35 1.066-.102 1.677.228.302.353.606.477.913l.111.098c-.217-.09-.328-.19-.34-.397-.008-.104-.526-.072-.519.03-.19.328.144.622.578.905.326.19.455.599.478.91-.202.117-.412.132-.509.243-.202.118-.082.319.027.42.222.19.448.49.364.808l.106-.007c-.077.426-.163.744-.144 1.055a.464.464 0 0 0-.306.126c-.29.332-.162.74-.244 1.061-.086.317.149.72.168 1.033.013.21.022.313-.07.529-.096.109-.195.222-.19.324.119.203.542.28.757.37l.005.105c.027.416.36.71.587 1.007l.105-.007-.476-.909c.109.095.423.078.521-.034.196-.222.188-.326-.034-.52-.428-.18.072-.528.052-.84-.124-.305-.254-.714-.177-1.138-.018-.314.267-.75-.065-1.042l-.106.007c-.005-.106.097-.11.094-.215.285-.436.35-1.068.419-1.597.079-.421.351-1.067-.091-1.456-.01-.102-.119-.2-.23-.3-.012-.205.183-.427.161-.741-.017-.312-.039-.622-.163-.93-.116-.201-.136-.511-.157-.827-.124-.303.17-.636.254-.955.273-.646.127-1.262.2-1.79-.046-.73.013-1.464-.347-2.176zm3.476-37.43c-1.491 4.484-.176 25.201 3.268 26.76 2.259 1.007 13.772-3.699 13.668 2.896-.093 5.127-8.572 3.262-11.43 4.385-8.254 3.345-2.053 21.977-1.994 29.499 2.063-.445 16.337-4.487 13.994 3.085-.435 1.385-14.04 6.014-16.323 6.367-14.065 2.355-9.237-20.425-9.533-28.352-.412-14.712-2.605-29.52-3.322-44.11-.338-5.31-.986-8.927 5.396-10.481 6.787-1.791 14.12-1.524 20.746.772 7.656 10.28-12.355 2.98-14.47 9.178zM244.336 45.68c-9.605.192-4.285 31.319-3.928 36.94 7.06-4.105 14.683-37.097 3.928-36.94zm-8.695 45.817l.52-.034-.45-.494c-.005-.104-.312.02-.312.02-.09.214.02.313.242.508zm1.193 8.911l-.006-.104c.28-.54 1.183-1.118.63-1.606-.11-.1-.728.045-.834.052-.396.339-.176.533-.473.762l-.287.437c-.018-.311-.032-.521.05-.839.086-.322.06-.738.554-1.184.396-.341.383-.547.156-.848-.222-.194-.237-.402-.452-.493 0 0-.003-.104-.11-.099.216.092.325.19.325.19.007.102.527.07.52-.034.203-.118-.124-.305-.44-.39-.325-.187-.445-.391-.56-.592l.624-.04c.2-.116-.015-.208-.022-.313-.211-.09-.428-.181-.339-.397l-.102.008c-.014-.207.181-.429.169-.637l.312-.021c.299-.228.182-.43.28-.54.09-.215-.03-.418-.04-.624-.007-.104-.12-.202.082-.319.106-.007.205-.116.099-.11-.007-.105-.43-.184-.638-.17l-.008-.105c-.012-.208-.337-.396-.552-.488l-.105.007.444.391c-.21.013-.416.025-.516.138-.197.117-.305.124.014.206.325.19-.186.325-.071.53.014.207.13.41.039.625.007.102-.292.331.138.51l-.097.114c-.292.33-.385.546-.47.865-.087.216-.374.651-.05.84.104-.006.215.089.32.084-.105.005-.105.005-.097.11.109.098-.092.216-.19.327.014.208.02.31.14.513.116.202.121.306.128.408.013.21-.182.432-.376.653-.186.326-.17.638-.149.948-.077.425-.163.744.072 1.147.113.097.527.07.73-.044l.007.102c.012.208.025.418.136.514.007.104.332.294.13.409.006.106-.09.215-.193.222l-.477.762c.015.208.03.416.561.594l.31-.022c.538.176-.277.541-.473.762-.29.333-.272.645.477.91.106-.007.834-.053.932-.163.2-.118-.123-.306-.138-.514-.113-.097-.02-.312-.027-.418.092-.211.174-.534-.247-.611l.312-.018c.19-.324-.247-.611-.156-.826.084-.318.584-.667.661-1.088-.007-.103-.331-.293-.553-.488l-.104.005zm-2.334 1.09c.123.307.238.511.254.717l.102-.007c-.01-.21.077-.425-.046-.73l-.31.02zm-.056 2.408l.24.509.52-.034c.092-.215.084-.32.079-.425.088-.212-.126-.305.07-.525.297-.228.495-.449-.353-.606 0 0-.416.028-.305.125.32.084.428.183.13.409-.202.12-.408.13-.506.242-.097.111.012.208.125.305zm2.963 3.89c-.116-.203-.435-.285-.866-.468l-.007-.104c.287-.438.574-.871.65-1.296-.02-.314-.137-.515-.254-.714-.012-.211.08-.423-.145-.62-.005-.104-.317-.084-.312.02l-.287.435c-.01-.206-.123-.304-.346-.5l-.727.047c-.194.222-.181.43-.273.645.02.312-.071.527-.156.844-.188.325-.16.743.074 1.146l.54.28-.187.328c-.178.53-.255.955-.846 1.514-.088.215-.285.438.032.522.215.09.947.043 1.251-.079l.007.102c-.1.113-.195.223-.184.43-.088.216.244.506.471.807l.416-.027c.111.1.111.1.215.09l-.11-.095c.19-.328.376-.653.259-.853-.005-.104.084-.32.077-.425-.007-.102-.22-.194-.332-.29.606-.354.685-.777.879-.997.09-.215.18-.43.161-.742zm28.035 18.395c-6.55 2.19-10.48-6.964-13.371-11.383-2.2-3.309-7.558-18.544-11.713-18.177.005 5.018-.366 10.688 1.611 15.474 1.373 3.573 4.697 8.17.71 11.245-10.46 8.085-11.54-18.817-11.903-22.868-.85-10.087-.247-20.37-.787-30.476-.408-6.453-.507-12.928-.91-19.28-.452-5.51-2.108-8.543 1.576-13.062 3.371.414 5.91.878 8.993.057 3.793-1.181 5.901-2.57 10.207-.649 6.772 3.021 8.332 11.075 9.067 17.718 1.041 8.193.306 16.392-3.069 24.132-2.467 5.595-9.42 8.02-6.107 14.081 3.09 5.87 6.99 11.37 10.187 17.229 2.25 4.142 12.06 13.765 5.509 15.96z"/>
        <path fill="#95B455" d="M272.008 81.453c-.133-.411-.158-.827-.187-1.243-.005-.105-.215-.093-.206.013.025.416.05.83.19 1.346 0 0 .208-.014.203-.116zm-.065-4.283l-.269-.925c-.009-.104-.525-.07-.52.036-.09.211-.078.421-.059.733-.084.32.14.515-.05.839-.278.54-.473.762.386 1.126.11.097.415-.027.313-.02-.335-.292-.448-.495-.15-.72l.486-.556c.09-.215-.027-.416-.137-.513zm-.125 22.692c-.007-.105-.529-.073-.522.033l.475.91c.007.104.321.086.314-.02.082-.317-.04-.623-.267-.923zm-2.302-36.231l.111.096s.104-.005.099-.11l-.21.014zm2.255 2.576c-.215-.094-.944-.047-1.353.084.097-.11.09-.215.09-.215.084-.32.177-.533.163-.742.071-.527-.275-1.028-.519-1.535-.11-.098-.525-.072-.518.032-.184.429-.358.965-.22 1.477.01.208-.072.527-.057.737.012.206.136.513.35.606-.59.558-.648 1.293-.83 1.723-.184.43-.155.848-.126 1.265.023.414.457.701.903 1.092l-.098.11c-.156.846-.527 1.602-.472 2.434.025.416.156.824.183 1.242.13.41.052.834.289 1.237l.31-.018c.086-.32.174-.536.156-.848.123.305.247.61.476.909.108.099.631.066.728-.047.181-.426.163-.74.135-1.158l.227-1.373c.058-.735.106-1.572-.249-2.282-.014-.21-.236-.403-.457-.599-.007-.105.084-.319.079-.423.253-.957.301-1.796.765-2.766.189-.326.379-.652.045-.942zm-.145 17.465c-.007-.104-.425-.08-.633-.065.104-.007.097-.113-.007-.106-.02-.311-.04-.623-.17-1.036-.015-.206-.452-.493-.257-.713.099-.11.19-.325.185-.43.285-.436.473-.76.443-1.282-.023-.312-.054-.832-.491-1.119-.113-.096-.32-.086-.425-.077-.434-.285.254-.957.443-1.283.28-.542.233-1.27-.522-1.637-.217-.093-.839-.054-.938.056-.188.328.151.724.17 1.034.124.308.033.524.053.834-.083.319-.156.848.382 1.021-.21.015-.309.124-.309.124-.28.54.17 1.034.203 1.556-.065.631-.552 1.185-.617 1.818-.082.317.36.706.59 1.005l.107.099-.102.007c-.037 1.047-1.02 2.05-.333 2.947.116.205.63.065.724-.043.393-.444.262-.857.436-1.387l.276-.646c.03.522.055.936-.015 1.463-.064.631.088 1.355-.387 2.117-.385.545-.351 1.067-.104 1.68.226.297.355.604.477.909l.11.096c-.216-.09-.325-.186-.338-.394-.007-.106-.528-.073-.521.03-.187.327.143.619.579.906.326.188.455.597.477.91-.201.117-.411.131-.508.24-.2.12-.082.32.027.418.222.194.45.493.368.812l.102-.005c-.08.423-.163.744-.142 1.054a.452.452 0 0 0-.306.124c-.293.333-.162.742-.246 1.061-.086.317.147.722.17 1.034.013.208.02.312-.071.526-.097.112-.196.222-.189.328.117.199.54.277.757.369l.002.106c.028.416.362.706.59 1.007l.105-.007-.477-.913c.11.1.425.08.522-.032.192-.22.186-.324-.036-.518-.428-.185.07-.53.052-.84-.125-.305-.253-.716-.177-1.139-.022-.314.267-.751-.067-1.041l-.104.007c-.007-.106.099-.113.092-.215.287-.438.351-1.069.423-1.598.075-.419.348-1.066-.095-1.455-.007-.106-.117-.203-.226-.3-.013-.207.18-.43.16-.742-.02-.313-.04-.623-.164-.928-.118-.203-.138-.516-.154-.828-.123-.305.165-.639.251-.958.274-.645.13-1.262.2-1.789-.047-.73.01-1.462-.345-2.172zm3.478-37.435c-1.495 4.483-.18 25.204 3.264 26.762 2.26 1.005 13.77-3.697 13.668 2.895-.091 5.128-8.574 3.264-11.43 4.384-8.254 3.347-2.053 21.978-1.994 29.501 2.065-.443 16.336-4.485 13.995 3.083-.434 1.386-14.045 6.013-16.32 6.368-14.067 2.357-9.245-20.425-9.537-28.352-.41-14.712-2.606-29.519-3.322-44.11-.337-5.31-.984-8.927 5.396-10.482 6.787-1.789 14.122-1.523 20.748.773 7.654 10.28-12.355 2.98-14.468 9.178z"/>
        <path fill="#95B455" d="M304.97 88.662c.057-.735 1.054-1.53.39-2.115-.113-.098-.731.045-.826.158-.294.331-.17.636-.359.96l-.285.44c-.018-.312-.04-.624.047-.945-.034-.52-.068-1.041.315-1.588.388-.443.37-.757.135-1.16-.219-.193-.339-.396-.455-.597l-.113-.095c.105-.01.32.084.335.289-.106.007.414-.024.513-.136.091-.216-.235-.402-.558-.59-.427-.08-.549-.386-.563-.592a.823.823 0 0 0 .51-.242c.2-.118.087-.215-.015-.21-.222-.193-.445-.39-.455-.596l-.106.007c.093-.215.177-.534.163-.742.2-.12.2-.12.308-.126.289-.332.068-.527.16-.742.084-.317-.147-.617-.158-.826-.115-.203-.124-.305-.034-.52.099-.11.091-.215.091-.215-.116-.201-.532-.174-.74-.163l-.007-.104c-.124-.303-.445-.388-.767-.578l-.104.01c.116.2.44.388.663.584-.21.012-.416.023-.513.136-.197.222-.19.326.027.418.524.07.025.415.138.616.12.203.244.508.257.714-.081.322-.271.647.052.835l.109-.009-.102.113c-.285.436-.368.755-.34 1.17-.087.32-.26.852.064 1.042l.324.188-.102.007c.107.1-.084.321-.072.53-.091.21-.079.42.144.614.116.203.236.403.249.613.012.206-.287.436-.378.65-.176.535-.151.953-.12 1.369.025.416-.045.943.299 1.44.007.107.317.087.63.067.013.21.137.515.151.723.01.102.436.286.242.507l-.19.326c-.193.22-.383.547-.467.866.021.314.141.618.573.798 0 0 .215.093.425.079.423.08-.378.652-.47.865-.285.438-.256.854.386 1.128.215.09.944.043 1.041-.068.092-.213-.244-.51-.254-.714-.013-.21-.025-.417.066-.632-.014-.208.17-.533-.36-.71.104-.006.208-.011.303-.124.19-.324-.244-.611-.165-1.034-.029-.414.464-.866.543-1.29.091-.214-.346-.501-.568-.693l-.008-.106zm-2.3 1.61l.258.82c.007.105.113.098.105-.008-.02-.312-.039-.624-.163-.928 0 0-.208.012-.2.116zm-.017 3.033c.22.196.131.41.25.613l.518-.036c.091-.215.188-.324.175-.534-.012-.206-.233-.401-.04-.624.291-.331.487-.554-.365-.813 0 0-.312.021-.303.123.318.086.434.287.135.516-.203.117-.404.234-.396.34-.092.213-.085.317.026.415zm-.838-16.463l.333.292c.104-.007.514-.138.507-.242l-.331-.292-.325-.19c-.106.009-.308.127-.308.127.014.208.014.208.124.305zm3.88 21.599c-.02-.312-.451-.491-.878-.672l.099-.113c.166-.638.55-1.183.518-1.707-.02-.313-.041-.624-.163-.928-.022-.314-.04-.626-.158-.827-.111-.098-.32-.084-.416.025l-.176.535c-.014-.207-.129-.41-.351-.606-.111-.095-.735-.058-.832.052l-.16.85-.25.955c-.072.527-.142 1.056.204 1.554.01.21.228.301.445.393.003.102-.092.215-.088.317-.273.643-.337 1.276-.92 1.94-.093.215-.385.548-.064.632.322.187.95.149 1.36.018.007.102.007.102-.091.215-.099.11-.197.22-.183.43-.082.32.255.714.491 1.12l.518-.035c.188-.324.37-.755.248-1.061a.797.797 0 0 1 .173-.534c-.014-.208-.227-.3-.344-.5.604-.354.683-.775.87-1.101.084-.32.17-.638.148-.952zm19.251 20c-5.83.371-11.334 2.601-16.961 2.856-12.203.458-8.836-9.058-9.399-17.908-.712-11.244-1.744-22.573-2.563-33.809-.639-10.101-.027-21.846-3.975-31.318-.005-.106.092-.215.085-.321 1.64-3.865 8.746-3.899 11.227-1.025 2.486 2.979 1.518 9.102 1.948 12.628 1.332 9.43 2.259 19.093 3.066 28.555.889 9.036 1.149 18.008 2.459 27.125.746 5.18-.163 5.658 5.066 5.742 3.555-.016 11.614-1.468 14.326 1.705 4.175 4.854-1.54 5.428-5.279 5.77z"/>
        <path fill="#95B455" d="M350.952 78.634c-.669-7.274-.203-16.398-3.241-23.104-2.193 1.708-1.958 13.609-2.4 16.565-.83 6.638-1.45 13.367-1.444 20.057 9.476-.602 7.91-5.521 7.085-13.518zm-11.794 15.07l-.059-.937c-.009-.104-.113-.095-.215-.091.018.313-.068.632.066 1.043l.208-.014zm.538-3.067c-.118-.199-.133-.408-.143-.614-.113-.099-.536-.178-.526-.072-.1.11-.191.326-.184.428-.092.215.138.515-.17.64-.293.332-.488.554.261.82.007.102.423.075.314-.022-.324-.188-.436-.285-.036-.52.206-.116.412-.13.504-.344.095-.113.091-.217-.02-.316zm-1.552-9.619s-.006-.107-.212.011l.212-.01zm-2.266 25.228c-.01-.103-.429-.18-.425-.076.014.21.142.513.152.723.103-.008.423.077.423.077.09-.215-.034-.52-.15-.724zm4.562-23.598c-.211-.092-.943-.047-1.246.077l-.007-.102c.088-.217.181-.43.174-.534-.013-.208-.131-.41-.247-.612-.12-.2-.341-.398-.553-.487-.007-.106-.417.028-.41.13-.183.43-.161.743-.04 1.05.015.207-.077.42-.068.526.011.208.224.3.336.396-.597.456-.674.879-.864 1.205-.196.222-.277.54-.26.853.021.312.45.493.783.785l.005.106c-.278.54-.661 1.087-.731 1.614-.086.319.038.625.052.833.018.312-.065.63.06.938 0 0 .006.102.11.095l-.416.027c-.195.222.137.512.15.722l-.171.64c-.095.111-.278.538.258.713l-.312.02c-.296.332.045.73-.04 1.049-.076.425-.68.774-.865 1.204-.09.215.348.5.464.703.005.102.005.102.11.097l-.097.111c-.273.644-1.386 1.237-.818 1.934.11.097.742.162.84.049.404-.233.277-.538.571-.872l.39-.442-.254.957c-.175.534-.141 1.054-.745 1.405-.499.346-.578.771-.343 1.173l.355.711.007.102c-.11-.096-.226-.297-.235-.403 0 0-.42-.079-.527-.07-.193.22.034.518.36.707.334.293.45.494.363.815-.214-.093-.42-.079-.52.032-.208.013-.09.216.012.208.12.201.35.502.147.619.006.104.112.095.112.095-.094.217-.183.432-.38.654l-.31.02c-.3.226-.182.428-.375.649-.093.217-.075.527-.058.736.013.208.02.312-.184.43-.104.006-.2.117-.2.117.012.208.436.287.648.377l.007.104c.023.31.242.507.366.815l.102-.007c-.01-.208-.238-.507-.253-.717.111.097.425.079.527.072.203-.117.307-.124.086-.32-.437-.286.189-.326.176-.532-.022-.313-.041-.625.05-.84-.014-.208.391-.445.06-.735l-.105.005.201-.117c.294-.333.48-.657.669-.984.08-.319.473-.762.141-1.056-.007-.102-.116-.2-.22-.193.104-.007.104-.007.099-.111-.008-.104.191-.22.18-.429.09-.217.18-.428.063-.632-.012-.207-.13-.411-.04-.624-.013-.21.288-.436.481-.658.294-.332.267-.75.344-1.17.178-.537.248-1.062.112-1.576-.008-.104-.527-.07-.737-.06.098-.109.098-.109-.007-.102.091-.217.071-.529.057-.735-.007-.105-.339-.396-.136-.516l.193-.222c.294-.328.594-.558.676-.875-.02-.316-.04-.627-.37-.92a.78.78 0 0 1-.424-.077c-.432-.18.378-.65.58-.767.39-.445.363-.86-.29-1.237-.103.006-.215-.091-.42-.08l.096-.11.285-.434c.014.205.136.511.353.603.111.098.63.066.728-.045.195-.222.283-.438.373-.755l.249-.957c.177-.534.353-1.07.111-1.576-.106.007-.111-.097-.111-.097l-.007-.105-.102.009-.232-.302c-.005-.102.094-.213.086-.317.275-.647.441-1.283 1.02-2.052.09-.215.382-.547-.048-.728zm25.009 29.98c-2.578 2.254-6.029 3.834-8.537 2.217-.975-.567-2.174-4.568-2.33-7.067-.086-3.026-.886-5.691-1.791-8.457-2.413 1.513-4.88 2.194-7.298 3.6-3.934 2.235-2.242-.694-2.776 4.042-.318 3.26.724 6.435-.895 8.943-2.287 3.49-5.998 2.68-8.246.208-2.91-3.053-2.585-7.78-2.628-11.749-.03-12.02 2.963-24.126 4.718-36.047 1.282-9.388 2.57-18.77 4.812-27.904 1.007-3.93 1.473-6.47 5.772-7.892 3.581-1.17 7.697-.594 9.086 3.185.255.717-1.088 5.923-1.136 6.763.045 2.4.622 4.873.979 7.253.647 5.186.772 10.51 1.416 15.694.894 7.472.595 11.045 2.108 18.37.893 4.23 2.601 11.334 3.089 15.693.595 4.458 3.164 8.685 3.635 12.837l.022.31zM370.508 63.91l-.309-1.55c-.005-.103-.11-.097-.104.007.033.521-.04 1.048.099 1.563l.314-.02zm.091-5.129c-.23-.3-.143-.618-.274-1.028-.111-.096-.526-.072-.52.032-.084.32-.176.532-.156.848-.084.317.145.618-.04 1.048-.276.54-.466.864.29 1.235.11.097.422.078.311-.02-.228-.299-.344-.501-.052-.833.194-.222.39-.443.48-.658a.66.66 0 0 0-.039-.624zm-2.04-15.654l.208-.015c-.102.008-.11-.098-.213-.09-.104.008-.104.008.005.105zm2.246 41.984c-.003-.106-.525-.07-.513.136l.587 1.01s.313-.02.306-.126a1.994 1.994 0 0 0-.38-1.02zm-1.628-10.874l.013.21c-.118-.203-.235-.403-.25-.611.008.105.125.304.237.401zm1.565-28.01c-.22-.194-.948-.146-1.253-.024l-.021-.312.265-.75c-.04-.623-.288-1.236-.534-1.848-.113-.095-.53-.07-.522.036-.28.54-.346 1.17-.206 1.684.018.315-.066.63-.15.95.012.21.134.41.358.708-.591.56-.751 1.303-.928 1.837-.07.529-.147.95-.115 1.472.032.52.47.806.815 1.307l.008.104c-.253.955-.619 1.814-.664 2.758.033.522.065 1.042.198 1.452.032.522-.047.943.195 1.45.007.105.32.087.314-.02l.258-.85c.021.31.15.72.378 1.021.009.102.633.063.731-.046.18-.43.155-.848.232-1.271l.215-1.58c.156-.848.199-1.79-.061-2.61-.126-.306-.348-.502-.568-.697.091-.215.075-.421.175-.532.246-1.062.283-2.11.84-3.19.191-.326.374-.756.04-1.048zm-.708 20.116c-.007-.104-.534-.174-.735-.056.099-.113.092-.215-.016-.21l-.073-1.143c-.011-.21-.454-.6-.154-.83l-.113-.095.294-.334c.175-.532.464-.968.426-1.49-.021-.417-.066-1.04-.5-1.328-.11-.095-.222-.195-.43-.18-.436-.286.351-1.07.541-1.394.27-.643.217-1.477-.44-1.959-.216-.091-.847-.154-.936.06-.189.325.148.722.177 1.14.016.311-.065.63-.038 1.048-.086.317-.261.853.28 1.13-.104.006-.307.125-.301.229-.174.532.177 1.14.107 1.667-.059.735-.54 1.39-.598 2.126-.077.425.365.814.595 1.113l.014.208c-.138 1.16-1.104 2.372-.409 3.476.11.097.633.064.73-.047.385-.546.25-1.057.421-1.595l.267-.748c.034.522.067 1.04-.005 1.569-.052.84 0 1.672-.362 2.531-.378.65-.443 1.282-.09 1.888.02.312.138.514.255.717-.111-.1-.525-.072-.518.03-.185.432.156.828.486 1.12.439.287.57.696.595 1.114a.817.817 0 0 0-.51.24c-.198.116.02.312.027.416.23.3.569.697.484 1.014l.104-.007c-.078.425-.155.848-.127 1.262a.47.47 0 0 0-.306.127c-.294.332-.052.84-.135 1.157-.079.423.052.831.18 1.244.021.312.13.41-.056.737-.1.107-.093.211-.086.317.12.2.54.278.758.37l.01.209c.132.409.465.7.698 1.104l.104-.005c-.129-.41-.462-.703-.586-1.01.208-.012.416-.025.516-.138.19-.218.18-.428-.034-.52-.437-.286.056-.734-.07-1.04-.13-.411-.265-.924-.294-1.34.081-.423.262-.851-.077-1.251l-.106.009.1-.111c.272-.646.336-1.275.3-1.9.07-.53.337-1.279-.115-1.77-.11-.1-.116-.202-.222-.197l-.005-.104c-.022-.31.175-.532.154-.844-.018-.314-.045-.73-.17-1.035-.122-.306-.246-.613-.267-.925-.027-.417.258-.855.342-1.172.269-.75.118-1.47.183-2.1.046-.843-.002-1.675-.264-2.494zm40.113 42.403c-.097.11-.088.215-.195.22-6.165 9.905-13.301-2.08-16.548-7.101-1.496-2.205-15.183-21.825-16.1-21.454-2.35.882-.69 10.603-.69 12.172.12 5.218 4.06 12.913 3.107 17.675-.976 4.35-7.077 5.467-10.515 2.342-2.884-2.64-1.954-9.39-2.305-13.236-1.058-11.743-.77-23.678-1.73-35.535-.713-9.572-4.012-22.01-2.305-31.316.876-4.344 2.635-4.665 7.09-3.589 5.938 1.296 5.341 3.426 5.053 8.775-.32 4.829.503 9.585.496 14.394.025 5.33-1.493 11.07.929 16.248 5.13-3.147 7.416-13.224 10.02-18.302 1.868-3.57 4.168-6.85 6.038-10.315 1.303-2.486.995-5.707 2.225-7.77 2.441-4.337 11.967-5.778 12.453.254.29 4.582-7.658 14.391-9.81 18.392-2.627 4.663-5.39 8.913-7.695 13.765-3.78 7.976-4.064 8.413-.136 16.003 3.106 6.073 7.529 11.544 10.924 17.286 1.755 2.92 3.82 4.146 5.74 6.43 1.247 1.49 2.12 3.734 3.954 4.662z"/>
        <path fill="#95B455" d="M436.2 92.667c.005.104.11.095.213.09-.102.005-.11-.097-.213-.09m-4.365-11.12c-.013-.206-.027-.416-.144-.614-.125-.307-.45-.497-.365-.816.168-.636.154-.844-.685-.896-.104.005-.407.13-.298.229.423.077.639.169.456.597-.092.215-.285.437-.271.645.009.21.124.305.235.404.324.186.335.396.565.695.104-.007.512-.136.507-.244m-1.78-3.334c-.23-.3-.359-.71-.69-1.002-.008-.104-.21.013-.205.118.334.293.57.696.694 1.002.106-.008.208-.016.2-.118m-3.084-9.108c-.106.007-.217-.09-.328-.186-.104.005-.11-.1-.214-.094a.578.578 0 0 1 .542.28m-.47-.807c-.423-.077-.75-.265-.979-.566.203-.115.396-.337.393-.441.09-.215-.126-.307-.233-.3-.316-.086-.633-.168-.76-.475l-.102.01-.373-.92c.098-.11.091-.215.197-.222-.027-.416-.247-.608-.371-.915-.135-.41-.46-.598-.58-.8-.116-.202-.32-.191-.234-.508.095-.11.088-.215-.021-.312-.113-.097-.524.032-.732.046-.102.008-.102.008-.11-.098l-.437-.285c-.104.005-.319-.086-.428-.181 0 0-.106.003-.099.11l.764.474c-.106.006-.412.13-.407.235-.082.317-.075.423.237.403.42-.028.136.515.358.708.226.298.554.486.676.793.127.308.16.828.678.796l.018.204c.032.523.274 1.033.407 1.543.236.404.38 1.022.916 1.2l.31-.022.007.104c.118.2.13.409.143.617.124.308.352.606.574.8.22.196.437.286.56.593.23.299.143.618.171 1.034.04.626.275 1.029.522 1.638.245.613.599 1.218 1.153 1.705.007.104.41-.13.604-.35l.007.103c.007.102.007.102.11.095l.469.81c.12.2.541.278.457.597l.027.416c-.075.423-.052.84.08 1.247.122.309.357.71.884.782.111.099.314-.02.418-.025.527.07.163.929.079 1.248-.067.632.184 1.244 1.023 1.294.11.097.215.091.418-.025-.106.005-.1.11-.1.11l.048.729c-.118-.201-.339-.398-.563-.592-.11-.097-.713.253-.706.359-.079.423.15.722.167 1.034l.295 1.34c.022.31.144.617.276 1.028.124.307.248.611.477.912l.651.375.111 1.771c.027.416-.05.84-.235 1.268-.082.319-.263.749.158.826.215.091.835-.052 1.244-.183l.013.208c-.09.215-.077.423-.065.631.014.21.13.41.256.717.117.2.237.403.458.597.007.104.42.079.518-.032.071-.527.145-1.054.012-1.465-.118-.2-.032-.52-.046-.73-.015-.206-.237-.403-.45-.492.482-.656.439-1.282.407-1.804a2.516 2.516 0 0 0-.08-1.247c-.236-.407-.655-.483-1.195-.762l-.007-.104c-.016-.208-.027-.418.063-.63l-.04-.625c-.023-.416-.054-.834-.176-1.14-.129-.41-.358-.708-.595-1.113-.227-.298-.356-.707-.69-1l-.206.014c.206-.015.402-.237.394-.343.081-.42-.35-.6-.467-.803-.228-.3-.25-.611-.366-.815-.02-.31-.158-.827-.676-.793.095-.109.199-.116.192-.222.072-.525-.57-.798-.71-1.312-.134-.515.023-1.257-.111-1.77-.13-.408-.66-.48-.984-.67 0 0-.006-.102-.11-.097-.138-.514-.066-1.041-.102-1.561-.03-.522-.167-1.034-.7-1.21-.114-.097-.612.247-.712.359-.069.527.27.923.191 1.346l.045.73-.597-1.218c-.25-.611-.602-1.215-.444-2.063.082-.317-.04-.624-.054-.83-.111-.099-.111-.099-.118-.203-.112-.096-.112-.096-.119-.2l-.331-.294c-.215-.092-.429-.183-.545-.384.003.106.505-.24.5-.344-.029-.42-.554-.49-.97-.463m-4.815-6.697c-.009-.106-.113-.098-.12-.2-.102.007-.11-.1-.215-.092l-.339-.396c-.102.007-.306.124-.3.23.008.101.124.302.236.399 0 0 .11.099.12.2.102-.003.102-.003.213.094.104-.007.513-.136.405-.235m13.669-6.932c3.873-4.845 4.384-16.587-2.212-20.034-10.598-5.598-7.614 13.446-7.323 18.027 1.097 15.61 16.589 27.484 18.198 42.959 1.841 17.444-25.485 23.36-31.241 6.79-.875-2.244.398-5.252-.462-7.287-.372-.92-2.288-1.425-2.444-2.25-1.111-4.32 4.042-7.155 8.67-6.716 5.678.579 3.425 2.916 3.084 7.434-.283 3.78.092 8.043 3.996 10.2 16.795-3.785-10.795-36.634-12.34-44.48-1.382-6.916-1.12-20.941 3.644-26.573 6.72-7.744 20.735-6.022 27.696-.086 1.423 5.973 4.438 33.69-9.266 22.016"/>
        <path fill="#95B455" d="M477.778 34.624l.208-.013c-.015-.206-.126-.306-.237-.403l-.208.012c.014.212.126.307.237.404zm-.558 7.667l.038.625.102-.007c-.01-.208.079-.423-.038-.624l-.102.006zm-.197 1.893c.113.096.12.202.124.304.007.106.218.094.32.086-.007-.102-.014-.208.083-.319-.007-.105-.115-.2-.027-.416.201-.116.3-.225-.129-.406-.005-.108-.215-.095-.102.003.11.095.22.194.018.314-.102.003-.2.116-.3.226l.013.208zm1.443-8.556c.104-.008.099-.113.099-.113-.007-.104-.217-.092-.328-.189l-.337-.396-.104.007.338.395c-.109-.097-.313.023-.313.023-.097.11-.097.11.012.206.217.09.015.21.029.418.007.102.124.305.027.418.01.206-.084.317.136.51l-.104.008c-.091.215-.183.428-.167.64-.09.211-.175.53-.068.629.011.104.111.098.122.202.004.104-.098.112-.091.214l.025.417c.005.103.122.307.133.41.007.103-.2.22-.294.333a2.047 2.047 0 0 0-.06.733c-.082.319-.168.64-.044.944.11.099.319.085.42.077.015.208-.08.32.03.42.007.104.123.305.02.312.005.102-.1.11-.092.213-.099.111-.294.332-.28.54.007.106.02.313.242.509l.208-.014c.215.09-.183.43-.278.54-.197.221-.175.533.149.723 0 0 .111.097.215.09-.097.113-.195.222-.19.326-.012-.206-.02-.314-.129-.409-.11-.098-.421-.078-.416.026l-.183.43c.015.208-.079.423-.064.629-.08.32-.167.64.063.94.007.101.114.2.218.195-.097.109-.088.215-.088.215-.078.421-.156.844-.45 1.176.008.104-.188.324.026.416.113.098.424.078.625-.038l.006.102c.007.106-.086.215-.083.321.01.206.233.403.351.604.008.104.208-.012.208-.012.092-.216.183-.43.061-.633-.007-.102.097-.214.09-.32-.01-.101-.118-.2-.23-.299.307-.122.286-.433.375-.649.092-.216.19-.326.178-.534a.809.809 0 0 0-.441-.389l-.01-.106.357-.964c-.012-.206-.026-.416-.138-.513-.012-.208.081-.423-.032-.52l-.104.006c.104-.005.21-.014.307-.124.096-.11-.126-.305-.131-.41-.01-.102.091-.215.079-.423-.011-.104.08-.32-.133-.41l.104-.004c.195-.223-.027-.416-.041-.626.086-.32.385-.547.477-.762-.006-.106-.228-.3-.233-.405-.106.009-.113-.097-.113-.097.18-.43.68-.774.338-1.276l-.417.025c-.197.224-.08.425-.167.64-.107.007-.1.111-.199.222-.01-.208-.023-.416.068-.633-.012-.208.068-.527.258-.851.194-.222.284-.436.163-.74l-.229-.302-.005-.105s.109.098.116.2l.208-.01c.099-.111-.021-.31-.233-.402-.111-.098-.228-.301-.237-.403.104-.007.21-.015.307-.126.1-.009-.007-.104-.007-.104-.111-.098-.228-.299-.233-.403-.01-.106.084-.317.077-.423.102-.007.206-.014.202-.117.095-.109.088-.215.077-.424.095-.11-.021-.31-.026-.416-.008-.104-.12-.2-.022-.31zM451.434 54.38c-.032-.52-.17-1.033-.203-1.554-.009-.102-.11-.099-.104.007a3.988 3.988 0 0 0 .097 1.561l.21-.014zm.095-5.127l-.276-1.027c-.007-.106-.425-.079-.524.03-.08.323-.071.527-.048.843-.086.317.143.617-.04 1.045-.277.541-.467.87.29 1.237.11.099.422.08.313-.018-.335-.294-.452-.495-.056-.834.196-.222.391-.442.484-.657.086-.216-.027-.416-.143-.619zm.308 26.323c-.107-.097-.527-.072-.514.136.125.308.355.606.484 1.014.105-.007.416-.027.408-.129a1.986 1.986 0 0 0-.378-1.021zm-2.348-41.978l.206-.014s-.007-.104-.108-.097c-.105.007-.105.007-.098.111zm.719 31.104l.014.211c-.118-.202-.235-.407-.25-.611.01.102.126.305.236.4zm1.566-28.01c-.222-.193-.95-.148-1.36-.016-.006-.105.09-.217.082-.319.093-.215.18-.536.162-.742.068-.633-.285-1.237-.533-1.848-.007-.106-.423-.077-.52.032a4.688 4.688 0 0 0-.208 1.685c.124.307-.06.633-.044.947.012.206.132.407.358.706-.59.561-.753 1.303-.928 1.837-.176.533-.25.956-.115 1.47.034.522.364.816.815 1.307l.008.106c-.257.954-.617 1.814-.664 2.759.034.521.067 1.041.198 1.452.034.518-.045.943.195 1.45.007.104.217.09.314-.02l.258-.853c.02.312.045.73.274 1.029.113.097.737.057.834-.054.182-.428.156-.846.234-1.27l.216-1.578c.046-.845.197-1.791-.169-2.605-.021-.314-.244-.507-.466-.703.093-.215.08-.423.177-.532.142-1.056.284-2.112.845-3.193.188-.322.369-.753.037-1.047zm-.71 20.117c-.109-.099-.532-.176-.734-.06.096-.109.091-.21-.013-.207l-.072-1.146c-.014-.208-.459-.597-.261-.819l-.008-.104c.097-.111.196-.22.189-.324.28-.542.46-.97.532-1.5-.027-.415-.066-1.04-.502-1.325-.11-.095-.222-.194-.428-.183-.44-.285.35-1.067.432-1.386.378-.649.326-1.486-.334-1.965-.215-.091-.95-.148-1.04.067-.087.319.253.715.278 1.13.022.313-.062.634-.14 1.057.022.312-.155.844.384 1.124-.208.014-.303.123-.297.229-.282.538.175 1.138.105 1.665-.057.735-.537 1.393-.597 2.128-.078.425.366.814.49 1.12.007.103.11.096.115.201-.133 1.16-1.103 2.37-.404 3.476.007.104.631.063.73-.046.382-.549.244-1.062.42-1.596l.265-.75c.034.522.066 1.042-.004 1.571-.052.837.002 1.67-.464 2.537-.38.652-.34 1.278.012 1.882.02.314.138.514.255.717-.11-.102-.529-.072-.626.038-.079.423.262.82.594 1.113.435.287.566.693.593 1.113a.764.764 0 0 0-.506.24c-.204.117-.086.32.024.414.23.3.466.703.485 1.017.026.416-.053.84-.129 1.262-.105.005-.202.116-.202.116-.292.332-.158.848-.135 1.158-.078.425.052.834.181 1.244.018.312.133.41-.055.735-.099.113-.092.215-.086.321.012.208.54.278.756.368l.011.207c.029.418.466.705.593 1.114l.212-.011c-.134-.412-.463-.705-.59-1.01.108-.006.418-.028.515-.137.197-.219.183-.43-.033-.52-.437-.287.058-.737-.064-1.042-.133-.41-.27-.925-.296-1.339-.027-.417.26-.855-.183-1.244 0 0-.007-.106.097-.11.273-.644.235-1.27.296-1.901.075-.527.235-1.27-.11-1.771-.11-.095-.222-.192-.326-.187.104-.005.095-.11.095-.11-.12-.307.07-.53.16-.847-.022-.312-.049-.73-.172-1.036-.126-.303-.248-.611-.27-.923-.023-.416.157-.846.347-1.17.161-.745.114-1.47.177-2.103-.052-.834-.002-1.673-.261-2.492zm31.029-6.884c.261 7.406.405 14.61 1.09 22.092.621 6.545.87 12.07.238 18.591-.52 6.62 2.364 12.5-5.745 14.897-2.974.92-6.416 1.032-9.507 1.755-2.477.467-5.327 1.695-7.892.812-7.37-2.458-8.924-8.841-10.179-15.45-2.667-14.05-2.76-28.679-3.467-43.059-.216-3.436.28-7.125-.243-10.436-.38-2.695-1.78-5.01-2.257-7.594-.5-2.895-1.406-3.986 2.12-6.094 2.008-1.277 5.421-1.91 7.73-1.743 2.31.167 3.813.803 5.385 2.481 3.02 3.153 1.533 4.397 1.153 8.289-.891 7.375-.063 15.475.093 22.886.116 6.789-1.404 45.353 9.524 42.986 10.519-2.235 2.223-22.615 3.182-28.948-.095.215-.043-.626-.022-.314.292-11.831-.996-23.874-1.748-35.744-.084-3.024-1.487-10.254 1.185-12.616 6.237-5.522 7.397 4.547 7.192 7.905-.11 6.487 1.974 12.94 2.168 19.304zM198.582 128.117c-.692 1.626-.702 5.322-1.851 6.61-1.635 1.799-3.758.478-4.295-1.576-.601-2.135 1.403-4.032.674-5.685-.232-.453-1.861-.505-2.374-.995-.907-.747-1.787-2.343-2.011-3.438-.434-2.33 1.457-6.873 3.648-7.964 3.558-1.784 8.835 2.898 8.746 6.66-1.207.567-2.019 5.026-2.537 6.388"/>
        <path fill="#5A1300" d="M196.277 204.366s-3.487 5.229 1.742 7.19c5.227 1.96 9.365.653 9.365.653l-4.138-3.268s-1.96-1.305-1.742-1.96c.217-.656-.436-2.615-.436-2.615h-4.791z"/>
        <text fill="#5A1300" font-family="Playlist-Caps, Playlist" font-size="73.618" font-weight="500" letter-spacing=".036" transform="translate(0 20.976)">
            <tspan x="14.552" y="187.81">Z ASTRA</tspan>
        </text>
    </g>
</svg>
