<svg xmlns="http://www.w3.org/2000/svg" width="69" height="14" viewBox="0 0 69 14">
    <g fill="none" fill-rule="evenodd">
        <path fill="#EC1D24" d="M46.855 3.533c.145-.046.324-.079.567-.079.56 0 .7.325.646.708l-.112.703c-.058.381-.29.701-.85.7h-.544l.293-2.032zm1.362 5.193h2.185l-1.44-2.442c.75-.346 1.132-.927 1.243-1.676l.035-.226c.175-1.254-.527-2.02-2.639-2.02-1.162 0-2.17.186-2.859.478l-.833 5.886h2.206l.295-2.096h.561l1.246 2.096z"/>
        <path fill="#231F20" d="M66.679 9.6H28.943c.149.256.296.513.444.77.474.822.945 1.643 1.417 2.465h36.408l.338-2.414V9.6h-.871zM18.712 4.163l-.112.702c-.056.381-.29.704-.85.701h-.534l.28-2.03c.149-.048.329-.082.572-.082.557 0 .699.325.644.709zM19.8 8.434c.044-.292-.061-.526-.407-.526H17.63c-.558 0-.694-.324-.64-.708l.073-.54.687-.005c2.024-.025 2.92-.805 3.099-2.026l.037-.23c.173-1.25-.53-2.037-2.641-2.037-1.16 0-2.163.186-2.853.478l-.538 3.835c-.173 1.221.492 2.012 2.483 2.051h2.42l.044-.292zM14.23 8.402c.045-.29-.062-.492-.407-.492h-.26c-.556 0-.698-.326-.64-.709l.491-3.535h.645c.328 0 .591-.334.661-.826h-1.19l.357-2.556c-1.582.172-2.33.924-2.489 2.016l-.607 4.382c-.172 1.225.444 2.005 2.437 2.044h.956l.046-.324z"/>
        <path fill="#231F20" d="M25.137 4.162l-.112.703c-.056.381-.291.701-.85.7h-.542l.29-2.032c.149-.046.325-.079.57-.079.559 0 .697.325.644.708zm2.172.22c.175-1.254-.526-2.02-2.64-2.02-1.16 0-2.167.186-2.858.478l-.833 5.886h2.206l.295-2.096h.56l4.173 5.67c.275.372.62.648 1.06.648h.594l-3.834-6.664c.748-.346 1.133-.927 1.242-1.676l.035-.226zM3.992.284H1.788l-.896 6.44c-.152 1.092.386 1.83 1.922 2.002L3.992.284z"/>
        <path fill="#EC1D24" d="M66.74 4.163l-.112.702c-.058.381-.292.704-.852.701h-.534l.285-2.03c.144-.048.324-.082.57-.082.556 0 .696.325.643.709zm1.087 4.271c.044-.292-.063-.526-.407-.526h-1.762c-.56 0-.694-.324-.64-.708l.073-.54.685-.005c2.025-.025 2.922-.805 3.1-2.026l.038-.23c.171-1.25-.53-2.037-2.64-2.037-1.163 0-2.164.186-2.856.478l-.536 3.835c-.173 1.221.49 2.012 2.481 2.051h2.42l.044-.292zM67.865.903h-3.032l-.12.817h2.493c.326 0 .59-.326.66-.817M59.648 2.352c-.207 0-.39.008-.586.019l.291-2.087c-1.583.173-2.333.925-2.489 2.018l-.902 6.424h2.208l.732-5.2c.145-.047.324-.082.567-.082.556 0 .7.325.643.709l-.643 4.574h2.205l.611-4.332c.176-1.252-.524-2.043-2.637-2.043M40.941 7.651a1.856 1.856 0 0 1-.569.081c-.557 0-.697-.325-.644-.71l.113-.7c.055-.382.29-.705.85-.702h.543l-.293 2.031zm-1.697-5.289c-.328 0-.59.324-.66.816h2.252c.554 0 .697.348.641.731l-.096.624h-.733c-1.995.036-2.882.81-3.059 2.023l-.035.228c-.17 1.25.532 2.04 2.641 2.04 1.16 0 2.165-.188 2.857-.476l.551-3.922c.174-1.222-.484-2.026-2.478-2.064h-1.88zM34.623 2.362c-.732 0-1.401.074-1.969.201-.392-.13-.895-.2-1.524-.2-1.16 0-2.163.186-2.856.477l-.631 4.495.799 1.391h1.208l.734-5.2a1.77 1.77 0 0 1 .567-.083c.476 0 .647.237.654.546l-.667 4.737h2.205l.734-5.2c.144-.048.324-.083.567-.083.476 0 .648.237.653.546l-.665 4.737h2.206l.609-4.332c.177-1.252-.511-2.032-2.624-2.032"/>
        <path fill="#231F20" d="M7.32 8.726l.643-4.574c.054-.383-.089-.924-1.213-.625l-.73 5.2H3.813l.831-5.887c.691-.291 1.69-.477 2.854-.477 2.11 0 2.815.78 2.636 2.032l-.609 4.332H7.32z"/>
        <path fill="#EC1D24" d="M56.098 3.527l.056-.378c.042-.32.077-.6-.364-.68a9.386 9.386 0 0 0-1.522-.107c-2.111 0-3.03.787-3.205 2.037l-.332 2.373c-.171 1.25.53 2.052 2.64 2.052.599 0 1.152-.065 1.645-.152.24-.058.402-.165.469-.668l.052-.378a8.882 8.882 0 0 1-2.005.215c-.55 0-.701-.324-.645-.709l.43-3.08c.054-.384.294-.722.843-.722 1.258 0 1.938.197 1.938.197"/>
    </g>
</svg>
